<svg height="512" viewBox="0 0 60 60" width="512" xmlns="http://www.w3.org/2000/svg"><g id="Page-1" fill="none" fill-rule="evenodd"><g id="020---Scooter" fill-rule="nonzero"><circle id="Oval" cx="7" cy="53" fill="#607d8b" r="6"/><path id="Shape" d="m7 47c-.50446636.0030406-1.0064965.0702468-1.494.2 2.64056222.6883027 4.48275582 3.0735235 4.48134437 5.8023195s-1.84607153 5.1121098-4.48734437 5.7976805c2.25621684.5974295 4.6541441-.167743 6.1473104-1.961591s1.8105762-4.2908052.8137097-6.4011828-3.12708732-3.4511621-5.4610201-3.4372262z" fill="#37474f"/><circle id="Oval" cx="7" cy="53" fill="#9e9e9e" r="2"/><path id="Shape" d="m59 53c-.0053818 2.9219178-2.1148173 5.4150954-4.9955016 5.9042682-2.8806844.4891728-5.6948821-1.1679162-6.6644984-3.9242682.5401021-.0783799 1.0410837-.327119 1.43-.71l5.27-5.27h2.46c.2825321-.0001248.5630589-.0474426.83-.14 1.0763138 1.1087257 1.6757627 2.5947845 1.67 4.14z" fill="#607d8b"/><path id="Shape" d="m57.33 48.86c-.2669411.0925574-.5474679.1398752-.83.14h-2.046c.9981295 1.0926429 1.5498401 2.5200959 1.546 4-.0018234 2.7264202-1.8416366 5.1088529-4.479 5.8.4825825.128824.9795346.1960251 1.479.2 3.3137085 0 6-2.6862915 6-6 .0057627-1.5452155-.5936862-3.0312743-1.67-4.14z" fill="#37474f"/><circle id="Oval" cx="53" cy="53" fill="#9e9e9e" r="2"/><path id="Shape" d="m22 4.5c-.0043185.94340777.3788945 1.84721202 1.06 2.5h-11.56c-1.3807119 0-2.5-1.11928813-2.5-2.5s1.1192881-2.5 2.5-2.5h11.56c-.6811055.65278798-1.0643185 1.55659223-1.06 2.5z" fill="#ffdc00"/><path id="Shape" d="m59 46.5c0 1.3807119-1.1192881 2.5-2.5 2.5h-2.46l-5.27 5.27c-.3889163.382881-.8898979.6316201-1.43.71-.342.031 2.145.02-34.69.02.594938-1.6525156.4264623-3.4837733-.46-5h33.77l5.27-5.27c.4700638-.468104 1.1066141-.730636 1.77-.73h3.5c1.3807119 0 2.5 1.1192881 2.5 2.5z" fill="#ffdc00"/><path id="Shape" d="m56.5 44h-3c1.3807119 0 2.5 1.1192881 2.5 2.5s-1.1192881 2.5-2.5 2.5h-2.46l-5.27 5.27c-.3889163.382881-.8898979.6316201-1.43.71-.186.017 2.784.02 3 0 .5401021-.0783799 1.0410837-.327119 1.43-.71l5.27-5.27h2.46c1.3807119 0 2.5-1.1192881 2.5-2.5s-1.1192881-2.5-2.5-2.5z" fill="#fec108"/><circle id="Oval" cx="25.5" cy="4.5" fill="#ffeb3a" r="3.5"/><path id="Shape" d="m12.3 37.43-1.58 10.86c-1.05775007-.8395625-2.36956287-1.2944653-3.72-1.29-.76082437-.0013685-1.51471035.1446544-2.22.43l1.58-10.86c.23748244-1.6402857 1.75971429-2.7774824 3.4-2.54 1.6402857.2374824 2.7774824 1.7597143 2.54 3.4z" fill="#ffdc00"/><path id="Shape" d="m15.73 7-4.1 28.08c-.977157-1.1780889-2.68603707-1.4283794-3.96-.58l4.02-27.5z" fill="#ff9801"/><g fill="#000"><path id="Shape" d="m7 50c-1.65685425 0-3 1.3431458-3 3s1.34314575 3 3 3 3-1.3431458 3-3-1.34314575-3-3-3zm0 4c-.55228475 0-1-.4477153-1-1s.44771525-1 1-1 1 .4477153 1 1-.44771525 1-1 1z"/><path id="Shape" d="m60 46.5c0-1.9329966-1.5670034-3.5-3.5-3.5h-3.5c-.9281694.0014906-1.818274.3691034-2.477 1.023l-4.977 4.977h-32.81c-.2781416-.3964135-.5964987-.7630268-.95-1.094l1.5-10.331c.1376191-.9569302-.0804847-1.9311035-.613-2.738l3.927-26.837h6.111c.7883491.64176846 1.7724706.99462665 2.789 1 2.4852814 0 4.5-2.01471863 4.5-4.5s-2.0147186-4.5-4.5-4.5c-1.0182475.00423291-2.0043173.35715695-2.794 1h-11.206c-.9282342.00116554-1.81845748.36882741-2.477 1.023-.87792387.87736756-1.2238172 2.15498959-.90842188 3.355427.31539531 1.2004374 1.24461737 2.1430437 2.44042188 2.475573l-3.819 26.122c-.73777504.6235183-1.22304888 1.4945227-1.365 2.45l-1.5 10.322c-2.73967512 1.3673678-4.27139258 4.357852-3.78007816 7.3801234.49131443 3.0222715 2.89141851 5.3735806 5.92314265 5.802723 3.03172415.4291425 5.99012071-1.1636675 7.30093551-3.9308464h33.385c1.1238278 2.3661377 3.4767217 3.9049055 6.0949304 3.9860201 2.6182088.0811146 5.0618439-1.3090521 6.3299862-3.6010843 1.2681423-2.2920323 1.1477297-5.1008428-.3119166-7.2759358.053-.047.115-.082.166-.132.6575462-.6561332 1.0252069-1.5480974 1.021-2.477zm-49.124-13.174c-.3105094-.1360925-.6371649-.2318711-.972-.285-.33529434-.0429891-.67470566-.0429891-1.01 0l3.661-25.041h2.019zm14.624-31.326c1.3807119 0 2.5 1.11928813 2.5 2.5s-1.1192881 2.5-2.5 2.5-2.5-1.11928813-2.5-2.5 1.1192881-2.5 2.5-2.5zm-15.5 2.5c-.00160289-.39831396.1559176-.78077685.4375704-1.06242963s.6641156-.43917326 1.0624296-.43757037l9.776-.00001211c-.1777342.48037626-.2711085.98784491-.276 1.50001211.0048915.5121672.0982658 1.01963585.276 1.5h-9.776c-.8284271 0-1.5-.67157288-1.5-1.5zm-2.65 32.214c.15795344-1.0937999 1.17270005-1.8524534 2.2665-1.6945 1.0937999.1579534 1.8524534 1.1727001 1.6945 2.2665l-1.364 9.373c-1.23140345-.5879531-2.61202041-.7891188-3.96-.577zm-.35 21.286c-2.76142375 0-5-2.2385763-5-5s2.23857625-5 5-5 5 2.2385763 5 5c-.0033061 2.7600532-2.23994685 4.9966939-5 5zm6.705-7h32.255c.2651948-.0000566.5195073-.1054506.707-.293l5.271-5.27c.28257-.2799407.6642406-.4369934 1.062-.437h3.5c.6081495-.0019024 1.1572631.3635818 1.3902494.9253351.2329863.5617534.103731 1.2085899-.3272494 1.6376649-.1594381.1566416-.3507901.2770467-.561.353-.1608491.0555577-.3298263.0839458-.5.084h-2.462c-.2651948.0000566-.5195073.1054506-.707.293l-5.271 5.27c-.2229006.2199911-.5075393.3668451-.816.421-.079.008-.166.016-.246.016h-33.08c.1566148-1.0033712.0830959-2.0292164-.215-3zm40.295 2c0 .5522847-.4477153 1-1 1s-1-.4477153-1-1 .4477153-1 1-1 1 .4477153 1 1zm-1 5c-1.7641919-.0025336-3.3958185-.9367929-4.291-2.457.280866-.1523636.5393137-.3428342.768-.566l.777-.777c.5353987 1.2344269 1.827209 1.9613849 3.1602434 1.7784069s2.3811855-1.2311291 2.5641635-2.5641635-.54398-2.6248447-1.7784069-3.1602434l.254-.254h2.046c.1466226-.0033021.2929012-.0156589.438-.037.6857309.8639484 1.059911 1.9339908 1.062 3.037-.0033061 2.7600532-2.2399468 4.9966939-5 5z"/></g></g></g></svg>